<svg xmlns="http://www.w3.org/2000/svg" width="32" height="32" viewBox="0 0 32 32">
    <path fill="#FFF" d="M20.916 16c0 2.728-2.211 4.938-4.938 4.938s-4.939-2.21-4.939-4.938c0-.394.051-.773.138-1.14h-.897v6.838h11.396V14.86h-.897c.086.367.137.746.137 1.14z"/>
    <path fill="#FFF" d="M15.978 18.659c1.466 0 2.659-1.193 2.659-2.659s-1.193-2.659-2.659-2.659c-1.466 0-2.659 1.193-2.659 2.659s1.192 2.659 2.659 2.659zM18.637 10.302H21.676000000000002V13.341H18.637z"/>
    <path fill="#FFF" d="M16 0C7.164 0 0 7.164 0 16c0 8.837 7.164 16 16 16 8.837 0 16-7.163 16-16 0-8.836-7.163-16-16-16zm7.955 21.698c0 1.254-1.025 2.279-2.279 2.279H10.279C9.026 23.978 8 22.952 8 21.698V10.302c0-1.253 1.026-2.279 2.279-2.279h11.396c1.254 0 2.279 1.026 2.279 2.279v11.396z"/>
</svg>
